<mxfile host="app.diagrams.net" modified="2023-03-16T14:26:41.908Z" agent="5.0 (Macintosh; Intel Mac OS X 10_15_7) AppleWebKit/537.36 (KHTML, like Gecko) Chrome/110.0.0.0 Safari/537.36" etag="DmeFltu9aWpH-mh-gT68" version="21.0.6" type="github">
  <diagram id="C5RBs43oDa-KdzZeNtuy" name="Page-1">
    <mxGraphModel dx="954" dy="1817" grid="1" gridSize="10" guides="1" tooltips="1" connect="1" arrows="1" fold="1" page="1" pageScale="1" pageWidth="827" pageHeight="1169" math="0" shadow="0">
      <root>
        <mxCell id="WIyWlLk6GJQsqaUBKTNV-0" />
        <mxCell id="WIyWlLk6GJQsqaUBKTNV-1" parent="WIyWlLk6GJQsqaUBKTNV-0" />
        <mxCell id="tzw835VZM4lSA58TL19O-21" style="edgeStyle=orthogonalEdgeStyle;rounded=0;orthogonalLoop=1;jettySize=auto;html=1;exitX=0.5;exitY=1;exitDx=0;exitDy=0;entryX=0.625;entryY=0;entryDx=0;entryDy=0;entryPerimeter=0;" edge="1" parent="WIyWlLk6GJQsqaUBKTNV-1" source="tzw835VZM4lSA58TL19O-0" target="tzw835VZM4lSA58TL19O-16">
          <mxGeometry relative="1" as="geometry" />
        </mxCell>
        <mxCell id="tzw835VZM4lSA58TL19O-0" value="&lt;p style=&quot;line-height: 0; overflow-wrap: break-word; margin: 0px; padding: 0px; border: 0px; font-family: Arial; background-color: rgb(255, 255, 255);&quot;&gt;Whitelisted API keys&lt;/p&gt;&lt;p style=&quot;line-height: 0; overflow-wrap: break-word; margin: 0px; padding: 0px; border: 0px; font-family: Arial; background-color: rgb(255, 255, 255);&quot;&gt;&lt;span style=&quot;cursor: auto;&quot;&gt;&lt;span style=&quot;cursor: auto; line-height: 14px;&quot;&gt;&amp;nbsp;&lt;/span&gt;&lt;/span&gt;&lt;/p&gt;" style="rhombus;whiteSpace=wrap;html=1;shadow=0;fontFamily=Helvetica;fontSize=12;align=center;strokeWidth=1;spacing=6;spacingTop=-4;" vertex="1" parent="WIyWlLk6GJQsqaUBKTNV-1">
          <mxGeometry x="40" y="-200" width="150" height="140" as="geometry" />
        </mxCell>
        <mxCell id="tzw835VZM4lSA58TL19O-25" style="edgeStyle=orthogonalEdgeStyle;rounded=0;orthogonalLoop=1;jettySize=auto;html=1;exitX=0.5;exitY=1;exitDx=0;exitDy=0;entryX=0.5;entryY=0;entryDx=0;entryDy=0;" edge="1" parent="WIyWlLk6GJQsqaUBKTNV-1" source="tzw835VZM4lSA58TL19O-1" target="tzw835VZM4lSA58TL19O-17">
          <mxGeometry relative="1" as="geometry" />
        </mxCell>
        <mxCell id="tzw835VZM4lSA58TL19O-1" value="Client cert Authentication" style="rhombus;whiteSpace=wrap;html=1;shadow=0;fontFamily=Helvetica;fontSize=12;align=center;strokeWidth=1;spacing=6;spacingTop=-4;" vertex="1" parent="WIyWlLk6GJQsqaUBKTNV-1">
          <mxGeometry x="240" y="-200" width="130" height="140" as="geometry" />
        </mxCell>
        <mxCell id="tzw835VZM4lSA58TL19O-26" style="edgeStyle=orthogonalEdgeStyle;rounded=0;orthogonalLoop=1;jettySize=auto;html=1;exitX=0.5;exitY=1;exitDx=0;exitDy=0;entryX=0.5;entryY=0;entryDx=0;entryDy=0;" edge="1" parent="WIyWlLk6GJQsqaUBKTNV-1" source="tzw835VZM4lSA58TL19O-2" target="tzw835VZM4lSA58TL19O-18">
          <mxGeometry relative="1" as="geometry" />
        </mxCell>
        <mxCell id="tzw835VZM4lSA58TL19O-2" value="Local group Authentication" style="rhombus;whiteSpace=wrap;html=1;shadow=0;fontFamily=Helvetica;fontSize=12;align=center;strokeWidth=1;spacing=6;spacingTop=-4;" vertex="1" parent="WIyWlLk6GJQsqaUBKTNV-1">
          <mxGeometry x="450" y="-200" width="140" height="140" as="geometry" />
        </mxCell>
        <mxCell id="tzw835VZM4lSA58TL19O-27" style="edgeStyle=orthogonalEdgeStyle;rounded=0;orthogonalLoop=1;jettySize=auto;html=1;exitX=0.5;exitY=1;exitDx=0;exitDy=0;entryX=0.5;entryY=0;entryDx=0;entryDy=0;" edge="1" parent="WIyWlLk6GJQsqaUBKTNV-1" source="tzw835VZM4lSA58TL19O-3" target="tzw835VZM4lSA58TL19O-19">
          <mxGeometry relative="1" as="geometry" />
        </mxCell>
        <mxCell id="tzw835VZM4lSA58TL19O-3" value="SOAP WSSE Security header Authentication" style="rhombus;whiteSpace=wrap;html=1;shadow=0;fontFamily=Helvetica;fontSize=12;align=center;strokeWidth=1;spacing=6;spacingTop=-4;" vertex="1" parent="WIyWlLk6GJQsqaUBKTNV-1">
          <mxGeometry x="630" y="-200" width="150" height="130" as="geometry" />
        </mxCell>
        <mxCell id="tzw835VZM4lSA58TL19O-28" style="edgeStyle=orthogonalEdgeStyle;rounded=0;orthogonalLoop=1;jettySize=auto;html=1;exitX=0.5;exitY=1;exitDx=0;exitDy=0;entryX=0.5;entryY=0;entryDx=0;entryDy=0;" edge="1" parent="WIyWlLk6GJQsqaUBKTNV-1" source="tzw835VZM4lSA58TL19O-4" target="tzw835VZM4lSA58TL19O-6">
          <mxGeometry relative="1" as="geometry" />
        </mxCell>
        <mxCell id="tzw835VZM4lSA58TL19O-4" value="Algorithm check" style="rhombus;whiteSpace=wrap;html=1;shadow=0;fontFamily=Helvetica;fontSize=12;align=center;strokeWidth=1;spacing=6;spacingTop=-4;" vertex="1" parent="WIyWlLk6GJQsqaUBKTNV-1">
          <mxGeometry x="360" y="120" width="100" height="80" as="geometry" />
        </mxCell>
        <mxCell id="tzw835VZM4lSA58TL19O-29" style="edgeStyle=orthogonalEdgeStyle;rounded=0;orthogonalLoop=1;jettySize=auto;html=1;exitX=0.5;exitY=1;exitDx=0;exitDy=0;entryX=0.5;entryY=0;entryDx=0;entryDy=0;" edge="1" parent="WIyWlLk6GJQsqaUBKTNV-1" source="tzw835VZM4lSA58TL19O-6" target="tzw835VZM4lSA58TL19O-8">
          <mxGeometry relative="1" as="geometry" />
        </mxCell>
        <mxCell id="tzw835VZM4lSA58TL19O-6" value="Expiration check" style="rhombus;whiteSpace=wrap;html=1;shadow=0;fontFamily=Helvetica;fontSize=12;align=center;strokeWidth=1;spacing=6;spacingTop=-4;" vertex="1" parent="WIyWlLk6GJQsqaUBKTNV-1">
          <mxGeometry x="360" y="217" width="100" height="80" as="geometry" />
        </mxCell>
        <mxCell id="tzw835VZM4lSA58TL19O-38" style="edgeStyle=orthogonalEdgeStyle;rounded=0;orthogonalLoop=1;jettySize=auto;html=1;exitX=0.5;exitY=1;exitDx=0;exitDy=0;entryX=0.5;entryY=0;entryDx=0;entryDy=0;" edge="1" parent="WIyWlLk6GJQsqaUBKTNV-1" source="tzw835VZM4lSA58TL19O-7" target="tzw835VZM4lSA58TL19O-1">
          <mxGeometry relative="1" as="geometry" />
        </mxCell>
        <mxCell id="tzw835VZM4lSA58TL19O-39" style="edgeStyle=orthogonalEdgeStyle;rounded=0;orthogonalLoop=1;jettySize=auto;html=1;exitX=0.5;exitY=1;exitDx=0;exitDy=0;entryX=0.5;entryY=0;entryDx=0;entryDy=0;" edge="1" parent="WIyWlLk6GJQsqaUBKTNV-1" source="tzw835VZM4lSA58TL19O-7" target="tzw835VZM4lSA58TL19O-2">
          <mxGeometry relative="1" as="geometry" />
        </mxCell>
        <mxCell id="tzw835VZM4lSA58TL19O-40" style="edgeStyle=orthogonalEdgeStyle;rounded=0;orthogonalLoop=1;jettySize=auto;html=1;exitX=0.5;exitY=1;exitDx=0;exitDy=0;entryX=0.5;entryY=0;entryDx=0;entryDy=0;" edge="1" parent="WIyWlLk6GJQsqaUBKTNV-1" source="tzw835VZM4lSA58TL19O-7" target="tzw835VZM4lSA58TL19O-3">
          <mxGeometry relative="1" as="geometry" />
        </mxCell>
        <mxCell id="tzw835VZM4lSA58TL19O-41" style="edgeStyle=orthogonalEdgeStyle;rounded=0;orthogonalLoop=1;jettySize=auto;html=1;exitX=0.5;exitY=1;exitDx=0;exitDy=0;entryX=0.5;entryY=0;entryDx=0;entryDy=0;" edge="1" parent="WIyWlLk6GJQsqaUBKTNV-1" source="tzw835VZM4lSA58TL19O-7" target="tzw835VZM4lSA58TL19O-0">
          <mxGeometry relative="1" as="geometry" />
        </mxCell>
        <mxCell id="tzw835VZM4lSA58TL19O-42" style="edgeStyle=orthogonalEdgeStyle;rounded=0;orthogonalLoop=1;jettySize=auto;html=1;exitX=0.5;exitY=1;exitDx=0;exitDy=0;" edge="1" parent="WIyWlLk6GJQsqaUBKTNV-1" source="tzw835VZM4lSA58TL19O-7" target="tzw835VZM4lSA58TL19O-11">
          <mxGeometry relative="1" as="geometry" />
        </mxCell>
        <mxCell id="tzw835VZM4lSA58TL19O-7" value="Start/Request" style="rounded=1;whiteSpace=wrap;html=1;fontSize=12;glass=0;strokeWidth=1;shadow=0;" vertex="1" parent="WIyWlLk6GJQsqaUBKTNV-1">
          <mxGeometry x="354" y="-300" width="120" height="40" as="geometry" />
        </mxCell>
        <mxCell id="tzw835VZM4lSA58TL19O-30" style="edgeStyle=orthogonalEdgeStyle;rounded=0;orthogonalLoop=1;jettySize=auto;html=1;exitX=0.5;exitY=1;exitDx=0;exitDy=0;entryX=0.5;entryY=0;entryDx=0;entryDy=0;" edge="1" parent="WIyWlLk6GJQsqaUBKTNV-1" source="tzw835VZM4lSA58TL19O-8" target="tzw835VZM4lSA58TL19O-9">
          <mxGeometry relative="1" as="geometry" />
        </mxCell>
        <mxCell id="tzw835VZM4lSA58TL19O-32" style="edgeStyle=orthogonalEdgeStyle;rounded=0;orthogonalLoop=1;jettySize=auto;html=1;exitX=0.5;exitY=1;exitDx=0;exitDy=0;entryX=0.5;entryY=0;entryDx=0;entryDy=0;" edge="1" parent="WIyWlLk6GJQsqaUBKTNV-1" source="tzw835VZM4lSA58TL19O-8" target="tzw835VZM4lSA58TL19O-13">
          <mxGeometry relative="1" as="geometry" />
        </mxCell>
        <mxCell id="tzw835VZM4lSA58TL19O-8" value="Issuer check" style="rhombus;whiteSpace=wrap;html=1;shadow=0;fontFamily=Helvetica;fontSize=12;align=center;strokeWidth=1;spacing=6;spacingTop=-4;" vertex="1" parent="WIyWlLk6GJQsqaUBKTNV-1">
          <mxGeometry x="360" y="337" width="100" height="80" as="geometry" />
        </mxCell>
        <mxCell id="tzw835VZM4lSA58TL19O-31" style="edgeStyle=orthogonalEdgeStyle;rounded=0;orthogonalLoop=1;jettySize=auto;html=1;exitX=0.5;exitY=1;exitDx=0;exitDy=0;entryX=0.5;entryY=0;entryDx=0;entryDy=0;" edge="1" parent="WIyWlLk6GJQsqaUBKTNV-1" source="tzw835VZM4lSA58TL19O-9" target="tzw835VZM4lSA58TL19O-12">
          <mxGeometry relative="1" as="geometry">
            <Array as="points">
              <mxPoint x="410" y="570" />
              <mxPoint x="375" y="570" />
            </Array>
          </mxGeometry>
        </mxCell>
        <mxCell id="tzw835VZM4lSA58TL19O-51" style="edgeStyle=orthogonalEdgeStyle;rounded=0;orthogonalLoop=1;jettySize=auto;html=1;exitX=0;exitY=0.5;exitDx=0;exitDy=0;entryX=1;entryY=0.5;entryDx=0;entryDy=0;" edge="1" parent="WIyWlLk6GJQsqaUBKTNV-1" source="tzw835VZM4lSA58TL19O-9" target="tzw835VZM4lSA58TL19O-43">
          <mxGeometry relative="1" as="geometry" />
        </mxCell>
        <mxCell id="tzw835VZM4lSA58TL19O-9" value="Look up introspection response in tokenValidation Cache" style="rhombus;whiteSpace=wrap;html=1;shadow=0;fontFamily=Helvetica;fontSize=12;align=center;strokeWidth=1;spacing=6;spacingTop=-4;" vertex="1" parent="WIyWlLk6GJQsqaUBKTNV-1">
          <mxGeometry x="285" y="450" width="250" height="110" as="geometry" />
        </mxCell>
        <mxCell id="tzw835VZM4lSA58TL19O-36" style="edgeStyle=orthogonalEdgeStyle;rounded=0;orthogonalLoop=1;jettySize=auto;html=1;exitX=0;exitY=0.5;exitDx=0;exitDy=0;entryX=1;entryY=0.5;entryDx=0;entryDy=0;" edge="1" parent="WIyWlLk6GJQsqaUBKTNV-1" source="tzw835VZM4lSA58TL19O-10" target="tzw835VZM4lSA58TL19O-23">
          <mxGeometry relative="1" as="geometry" />
        </mxCell>
        <mxCell id="tzw835VZM4lSA58TL19O-10" value="if token matches" style="rhombus;whiteSpace=wrap;html=1;shadow=0;fontFamily=Helvetica;fontSize=12;align=center;strokeWidth=1;spacing=6;spacingTop=-4;" vertex="1" parent="WIyWlLk6GJQsqaUBKTNV-1">
          <mxGeometry x="325" y="800" width="100" height="80" as="geometry" />
        </mxCell>
        <mxCell id="tzw835VZM4lSA58TL19O-22" style="edgeStyle=orthogonalEdgeStyle;rounded=0;orthogonalLoop=1;jettySize=auto;html=1;exitX=0.5;exitY=1;exitDx=0;exitDy=0;entryX=0.5;entryY=0.113;entryDx=0;entryDy=0;entryPerimeter=0;" edge="1" parent="WIyWlLk6GJQsqaUBKTNV-1">
          <mxGeometry relative="1" as="geometry">
            <mxPoint x="414" y="90" as="sourcePoint" />
            <mxPoint x="410" y="119.03999999999996" as="targetPoint" />
          </mxGeometry>
        </mxCell>
        <mxCell id="tzw835VZM4lSA58TL19O-11" value="Decode JWT token" style="rounded=1;whiteSpace=wrap;html=1;fontSize=12;glass=0;strokeWidth=1;shadow=0;" vertex="1" parent="WIyWlLk6GJQsqaUBKTNV-1">
          <mxGeometry x="354" y="51" width="120" height="40" as="geometry" />
        </mxCell>
        <mxCell id="tzw835VZM4lSA58TL19O-35" style="edgeStyle=orthogonalEdgeStyle;rounded=0;orthogonalLoop=1;jettySize=auto;html=1;exitX=0.5;exitY=1;exitDx=0;exitDy=0;entryX=0.5;entryY=0;entryDx=0;entryDy=0;" edge="1" parent="WIyWlLk6GJQsqaUBKTNV-1" source="tzw835VZM4lSA58TL19O-12" target="tzw835VZM4lSA58TL19O-10">
          <mxGeometry relative="1" as="geometry" />
        </mxCell>
        <mxCell id="tzw835VZM4lSA58TL19O-12" value="&lt;p style=&quot;line-height: 0; overflow-wrap: break-word; margin: 0px; padding: 0px; border: 0px; font-family: Arial; background-color: rgb(255, 255, 255);&quot;&gt;Route via to http introspection end point and store it in cache&lt;/p&gt;&lt;p style=&quot;line-height: 0; overflow-wrap: break-word; margin: 0px; padding: 0px; border: 0px; font-family: Arial; background-color: rgb(255, 255, 255);&quot;&gt;&lt;span style=&quot;cursor: auto;&quot;&gt;&lt;span style=&quot;cursor: auto; line-height: 14px;&quot;&gt;&amp;nbsp;&lt;/span&gt;&lt;/span&gt;&lt;/p&gt;" style="rounded=1;whiteSpace=wrap;html=1;fontSize=12;glass=0;strokeWidth=1;shadow=0;" vertex="1" parent="WIyWlLk6GJQsqaUBKTNV-1">
          <mxGeometry x="180" y="587" width="390" height="63" as="geometry" />
        </mxCell>
        <mxCell id="tzw835VZM4lSA58TL19O-33" style="edgeStyle=orthogonalEdgeStyle;rounded=0;orthogonalLoop=1;jettySize=auto;html=1;exitX=0.5;exitY=1;exitDx=0;exitDy=0;" edge="1" parent="WIyWlLk6GJQsqaUBKTNV-1" source="tzw835VZM4lSA58TL19O-13" target="tzw835VZM4lSA58TL19O-14">
          <mxGeometry relative="1" as="geometry" />
        </mxCell>
        <mxCell id="tzw835VZM4lSA58TL19O-52" style="edgeStyle=orthogonalEdgeStyle;rounded=0;orthogonalLoop=1;jettySize=auto;html=1;exitX=1;exitY=0.5;exitDx=0;exitDy=0;entryX=0;entryY=0.5;entryDx=0;entryDy=0;" edge="1" parent="WIyWlLk6GJQsqaUBKTNV-1" source="tzw835VZM4lSA58TL19O-13" target="tzw835VZM4lSA58TL19O-44">
          <mxGeometry relative="1" as="geometry" />
        </mxCell>
        <mxCell id="tzw835VZM4lSA58TL19O-13" value="Look up in jwks cache" style="rhombus;whiteSpace=wrap;html=1;shadow=0;fontFamily=Helvetica;fontSize=12;align=center;strokeWidth=1;spacing=6;spacingTop=-4;" vertex="1" parent="WIyWlLk6GJQsqaUBKTNV-1">
          <mxGeometry x="605" y="457" width="130" height="80" as="geometry" />
        </mxCell>
        <mxCell id="tzw835VZM4lSA58TL19O-46" style="edgeStyle=orthogonalEdgeStyle;rounded=0;orthogonalLoop=1;jettySize=auto;html=1;exitX=0.5;exitY=1;exitDx=0;exitDy=0;entryX=0.5;entryY=0;entryDx=0;entryDy=0;" edge="1" parent="WIyWlLk6GJQsqaUBKTNV-1" source="tzw835VZM4lSA58TL19O-14" target="tzw835VZM4lSA58TL19O-15">
          <mxGeometry relative="1" as="geometry" />
        </mxCell>
        <mxCell id="tzw835VZM4lSA58TL19O-14" value="&lt;p style=&quot;line-height: 0; overflow-wrap: break-word; margin: 0px; padding: 0px; border: 0px; font-family: Arial; background-color: rgb(255, 255, 255);&quot;&gt;Route via to http jwks end point and store it in cache&lt;/p&gt;&lt;p style=&quot;line-height: 0; overflow-wrap: break-word; margin: 0px; padding: 0px; border: 0px; font-family: Arial; background-color: rgb(255, 255, 255);&quot;&gt;&lt;span style=&quot;cursor: auto;&quot;&gt;&lt;span style=&quot;cursor: auto; line-height: 14px;&quot;&gt;&amp;nbsp;&lt;/span&gt;&lt;/span&gt;&lt;/p&gt;" style="rounded=1;whiteSpace=wrap;html=1;fontSize=12;glass=0;strokeWidth=1;shadow=0;" vertex="1" parent="WIyWlLk6GJQsqaUBKTNV-1">
          <mxGeometry x="600" y="585" width="350" height="63" as="geometry" />
        </mxCell>
        <mxCell id="tzw835VZM4lSA58TL19O-37" style="edgeStyle=orthogonalEdgeStyle;rounded=0;orthogonalLoop=1;jettySize=auto;html=1;exitX=1;exitY=0.5;exitDx=0;exitDy=0;entryX=0;entryY=0.5;entryDx=0;entryDy=0;" edge="1" parent="WIyWlLk6GJQsqaUBKTNV-1" source="tzw835VZM4lSA58TL19O-15" target="tzw835VZM4lSA58TL19O-24">
          <mxGeometry relative="1" as="geometry" />
        </mxCell>
        <mxCell id="tzw835VZM4lSA58TL19O-15" value="if token matches" style="rhombus;whiteSpace=wrap;html=1;shadow=0;fontFamily=Helvetica;fontSize=12;align=center;strokeWidth=1;spacing=6;spacingTop=-4;" vertex="1" parent="WIyWlLk6GJQsqaUBKTNV-1">
          <mxGeometry x="725" y="810" width="100" height="80" as="geometry" />
        </mxCell>
        <mxCell id="tzw835VZM4lSA58TL19O-16" value="continue" style="rounded=1;whiteSpace=wrap;html=1;fontSize=12;glass=0;strokeWidth=1;shadow=0;" vertex="1" parent="WIyWlLk6GJQsqaUBKTNV-1">
          <mxGeometry x="40" y="-30" width="120" height="40" as="geometry" />
        </mxCell>
        <mxCell id="tzw835VZM4lSA58TL19O-17" value="continue" style="rounded=1;whiteSpace=wrap;html=1;fontSize=12;glass=0;strokeWidth=1;shadow=0;" vertex="1" parent="WIyWlLk6GJQsqaUBKTNV-1">
          <mxGeometry x="245" y="-30" width="120" height="40" as="geometry" />
        </mxCell>
        <mxCell id="tzw835VZM4lSA58TL19O-18" value="continue" style="rounded=1;whiteSpace=wrap;html=1;fontSize=12;glass=0;strokeWidth=1;shadow=0;" vertex="1" parent="WIyWlLk6GJQsqaUBKTNV-1">
          <mxGeometry x="460" y="-40" width="120" height="40" as="geometry" />
        </mxCell>
        <mxCell id="tzw835VZM4lSA58TL19O-19" value="continue" style="rounded=1;whiteSpace=wrap;html=1;fontSize=12;glass=0;strokeWidth=1;shadow=0;" vertex="1" parent="WIyWlLk6GJQsqaUBKTNV-1">
          <mxGeometry x="640" y="-40" width="130" height="40" as="geometry" />
        </mxCell>
        <mxCell id="tzw835VZM4lSA58TL19O-23" value="continue" style="rounded=1;whiteSpace=wrap;html=1;fontSize=12;glass=0;strokeWidth=1;shadow=0;" vertex="1" parent="WIyWlLk6GJQsqaUBKTNV-1">
          <mxGeometry x="110" y="820" width="120" height="40" as="geometry" />
        </mxCell>
        <mxCell id="tzw835VZM4lSA58TL19O-24" value="continue" style="rounded=1;whiteSpace=wrap;html=1;fontSize=12;glass=0;strokeWidth=1;shadow=0;" vertex="1" parent="WIyWlLk6GJQsqaUBKTNV-1">
          <mxGeometry x="920" y="830" width="120" height="40" as="geometry" />
        </mxCell>
        <mxCell id="tzw835VZM4lSA58TL19O-43" value="continue" style="rounded=1;whiteSpace=wrap;html=1;fontSize=12;glass=0;strokeWidth=1;shadow=0;" vertex="1" parent="WIyWlLk6GJQsqaUBKTNV-1">
          <mxGeometry x="125" y="485" width="120" height="40" as="geometry" />
        </mxCell>
        <mxCell id="tzw835VZM4lSA58TL19O-44" value="continue" style="rounded=1;whiteSpace=wrap;html=1;fontSize=12;glass=0;strokeWidth=1;shadow=0;" vertex="1" parent="WIyWlLk6GJQsqaUBKTNV-1">
          <mxGeometry x="800" y="477" width="120" height="40" as="geometry" />
        </mxCell>
      </root>
    </mxGraphModel>
  </diagram>
</mxfile>
